<?plantuml 1.2026.2?><svg xmlns="http://www.w3.org/2000/svg" xmlns:xlink="http://www.w3.org/1999/xlink" contentStyleType="text/css" data-diagram-type="CLASS" height="1399px" preserveAspectRatio="none" style="width:3505px;height:1399px;background:#FFFFFF;" version="1.1" viewBox="0 0 3505 1399" width="3505px" zoomAndPan="magnify"><defs/><g><!--cluster services::general--><g class="cluster" data-qualified-name="services..general" data-source-line="6" id="ent0002"><rect fill="none" height="126" rx="2.5" ry="2.5" style="stroke:#000000;stroke-width:1.5;" width="236" x="1679" y="243"/><text fill="#000000" font-family="sans-serif" font-size="14" font-weight="bold" lengthAdjust="spacing" textLength="117.9216" x="1738.0392" y="259.9659">services::general</text></g><!--cluster services::websocket--><g class="cluster" data-qualified-name="services..websocket" data-source-line="12" id="ent0004"><rect fill="none" height="598" rx="2.5" ry="2.5" style="stroke:#000000;stroke-width:1.5;" width="1272" x="1939" y="7"/><text fill="#000000" font-family="sans-serif" font-size="14" font-weight="bold" lengthAdjust="spacing" textLength="139.2015" x="2505.3993" y="23.9659">services::websocket</text></g><!--cluster Actions--><g class="cluster" data-qualified-name="services..websocket.Actions" data-source-line="14" id="ent0005"><rect fill="none" height="227" rx="2.5" ry="2.5" style="stroke:#000000;stroke-width:1.5;" width="467" x="2720" y="192.5"/><text fill="#000000" font-family="sans-serif" font-size="14" font-weight="bold" lengthAdjust="spacing" textLength="52.0238" x="2927.4881" y="209.4659">Actions</text></g><!--cluster services::http--><g class="cluster" data-qualified-name="services..http" data-source-line="58" id="ent0009"><rect fill="none" height="1243" rx="2.5" ry="2.5" style="stroke:#000000;stroke-width:1.5;" width="1648" x="7" y="150"/><text fill="#000000" font-family="sans-serif" font-size="14" font-weight="bold" lengthAdjust="spacing" textLength="94.4437" x="783.7782" y="166.9659">services::http</text></g><!--cluster external/game--><g class="cluster" data-qualified-name="external.game" data-source-line="158" id="ent0021"><rect fill="none" height="86" rx="2.5" ry="2.5" style="stroke:#000000;stroke-width:1.5;" width="264" x="3235" y="263"/><text fill="#000000" font-family="sans-serif" font-size="14" font-weight="bold" lengthAdjust="spacing" textLength="104.1176" x="3314.9412" y="279.9659">external/game</text></g><!--class GeneralConfig--><g class="entity" data-qualified-name="services..general.GeneralConfig" data-source-line="7" id="ent0003"><rect fill="#F1F1F1" height="72.4799" rx="2.5" ry="2.5" style="stroke:#181818;stroke-width:0.5;" width="205.0313" x="1694.5" y="281"/><ellipse cx="1745.3198" cy="303.706" fill="#ADD1B2" rx="11" ry="11" style="stroke:#181818;stroke-width:1;"/><path d="M1748.2886,309.3466 Q1747.7104,309.6435 1747.0698,309.7841 Q1746.4292,309.9404 1745.7261,309.9404 Q1743.2261,309.9404 1741.8979,308.2998 Q1740.5854,306.6435 1740.5854,303.5185 Q1740.5854,300.3935 1741.8979,298.7373 Q1743.2261,297.081 1745.7261,297.081 Q1746.4292,297.081 1747.0698,297.2373 Q1747.7261,297.3935 1748.2886,297.6904 L1748.2886,300.4091 Q1747.6636,299.831 1747.0698,299.5654 Q1746.4761,299.2841 1745.8511,299.2841 Q1744.5073,299.2841 1743.8198,300.3623 Q1743.1323,301.4248 1743.1323,303.5185 Q1743.1323,305.6123 1743.8198,306.6904 Q1744.5073,307.7529 1745.8511,307.7529 Q1746.4761,307.7529 1747.0698,307.4873 Q1747.6636,307.206 1748.2886,306.6279 L1748.2886,309.3466 Z " fill="#000000"/><text fill="#000000" font-family="sans-serif" font-size="12" font-style="italic" lengthAdjust="spacing" textLength="41.2563" x="1792.6375" y="298.8281">&#171;utility&#187;</text><text fill="#000000" font-family="sans-serif" font-size="14" lengthAdjust="spacing" textLength="94.8916" x="1765.8198" y="317.31">GeneralConfig</text><line style="stroke:#181818;stroke-width:0.5;" x1="1695.5" x2="1898.5313" y1="326.412" y2="326.412"/><text fill="#000000" font-family="sans-serif" font-size="14" lengthAdjust="spacing" text-decoration="underline" textLength="193.0313" x="1700.5" y="345.378">origins : std::string_view = "*"</text></g><!--class WebsocketsHandler--><g class="entity" data-qualified-name="services..websocket.WebsocketsHandler" data-source-line="30" id="ent0008"><rect fill="#F1F1F1" height="543.7658" rx="2.5" ry="2.5" style="stroke:#181818;stroke-width:0.5;" width="746.4512" x="1955" y="45"/><ellipse cx="2258.3089" cy="61" fill="#ADD1B2" rx="11" ry="11" style="stroke:#181818;stroke-width:1;"/><path d="M2261.2776,66.6406 Q2260.6995,66.9375 2260.0589,67.0781 Q2259.4182,67.2344 2258.7151,67.2344 Q2256.2151,67.2344 2254.887,65.5938 Q2253.5745,63.9375 2253.5745,60.8125 Q2253.5745,57.6875 2254.887,56.0313 Q2256.2151,54.375 2258.7151,54.375 Q2259.4182,54.375 2260.0589,54.5313 Q2260.7151,54.6875 2261.2776,54.9844 L2261.2776,57.7031 Q2260.6526,57.125 2260.0589,56.8594 Q2259.4651,56.5781 2258.8401,56.5781 Q2257.4964,56.5781 2256.8089,57.6563 Q2256.1214,58.7188 2256.1214,60.8125 Q2256.1214,62.9063 2256.8089,63.9844 Q2257.4964,65.0469 2258.8401,65.0469 Q2259.4651,65.0469 2260.0589,64.7813 Q2260.6526,64.5 2261.2776,63.9219 L2261.2776,66.6406 Z " fill="#000000"/><text fill="#000000" font-family="sans-serif" font-size="14" lengthAdjust="spacing" textLength="131.3335" x="2278.8089" y="66.432">WebsocketsHandler</text><line style="stroke:#181818;stroke-width:0.5;" x1="1956" x2="2700.4512" y1="77" y2="77"/><text fill="#000000" font-family="sans-serif" font-size="14" lengthAdjust="spacing" text-decoration="underline" textLength="312.2268" x="1961" y="95.9659">kName : std::string_view = "websocket-handler"</text><text fill="#000000" font-family="sans-serif" font-size="14" lengthAdjust="spacing" textLength="3.64" x="1961" y="115.0339">&#160;</text><text fill="#000000" font-family="sans-serif" font-size="14" lengthAdjust="spacing" textLength="3.64" x="1961" y="134.1018">&#160;</text><text fill="#000000" font-family="sans-serif" font-size="14" lengthAdjust="spacing" textLength="3.64" x="1961" y="153.1697">&#160;</text><text fill="#000000" font-family="sans-serif" font-size="14" lengthAdjust="spacing" textLength="3.64" x="1961" y="172.2376">&#160;</text><text fill="#000000" font-family="sans-serif" font-size="14" lengthAdjust="spacing" textLength="263.563" x="1961" y="191.3055">-sqlite_client_ : storages::sqlite::ClientPtr</text><text fill="#000000" font-family="sans-serif" font-size="14" lengthAdjust="spacing" textLength="472.4422" x="1961" y="210.3734">-game_storage_client_ : std::shared_ptr&lt;ScrabbleGame::Storage::Client&gt;</text><line style="stroke:#181818;stroke-width:0.5;" x1="1956" x2="2700.4512" y1="218.4754" y2="218.4754"/><text fill="#000000" font-family="sans-serif" font-size="14" lengthAdjust="spacing" textLength="696.8474" x="1961" y="237.4414">+WebsocketsHandler(config : components::ComponentConfig, context : components::ComponentContext)</text><text fill="#000000" font-family="sans-serif" font-size="14" lengthAdjust="spacing" textLength="703.9455" x="1961" y="256.5093">+Handle(chat : server::websocket::WebSocketConnection, ctx : server::request::RequestContext) const : void</text><text fill="#000000" font-family="sans-serif" font-size="14" lengthAdjust="spacing" textLength="3.64" x="1961" y="275.5772">&#160;</text><text fill="#000000" font-family="sans-serif" font-size="14" lengthAdjust="spacing" textLength="400.4404" x="1961" y="294.6451">-check_if_user_joined_(game_id : int, user_id : int) const : bool</text><text fill="#000000" font-family="sans-serif" font-size="14" lengthAdjust="spacing" textLength="717.7354" x="1961" y="313.713">-current_game_state_for_user_(message : server::websocket::Message, user_id : int, game_id : int) const : void</text><text fill="#000000" font-family="sans-serif" font-size="14" lengthAdjust="spacing" textLength="440.2283" x="1961" y="332.7809">-ParseMessage(message : server::websocket::Message) const : void</text><text fill="#000000" font-family="sans-serif" font-size="14" lengthAdjust="spacing" textLength="720.7593" x="1961" y="351.8489">-action_place(message : server::websocket::Message, json_msg : formats::json::Value, user_id : int) const : void</text><text fill="#000000" font-family="sans-serif" font-size="14" lengthAdjust="spacing" textLength="716.5174" x="1961" y="370.9168">-action_start(message : server::websocket::Message, json_msg : formats::json::Value, user_id : int) const : void</text><text fill="#000000" font-family="sans-serif" font-size="14" lengthAdjust="spacing" textLength="734.4512" x="1961" y="389.9847">-action_change(message : server::websocket::Message, json_msg : formats::json::Value, user_id : int) const : void</text><text fill="#000000" font-family="sans-serif" font-size="14" lengthAdjust="spacing" textLength="711.2254" x="1961" y="409.0526">-action_end(message : server::websocket::Message, json_msg : formats::json::Value, user_id : int) const : void</text><text fill="#000000" font-family="sans-serif" font-size="14" lengthAdjust="spacing" textLength="715.9434" x="1961" y="428.1205">-action_pass(message : server::websocket::Message, json_msg : formats::json::Value, user_id : int) const : void</text><text fill="#000000" font-family="sans-serif" font-size="14" lengthAdjust="spacing" textLength="731.7913" x="1961" y="447.1884">-action_submit(message : server::websocket::Message, json_msg : formats::json::Value, user_id : int) const : void</text><text fill="#000000" font-family="sans-serif" font-size="14" lengthAdjust="spacing" textLength="557.072" x="1961" y="466.2564">-DefaultInit(json_for_redis : formats::json::ValueBuilder, gameID : int64_t) const : void</text><text fill="#000000" font-family="sans-serif" font-size="14" lengthAdjust="spacing" textLength="378.8946" x="1961" y="485.3243">-define_user_id_from_token_(token : std::string) const : int</text><text fill="#000000" font-family="sans-serif" font-size="14" lengthAdjust="spacing" textLength="407.3704" x="1961" y="504.3922">-ToVector&lt;T&gt;(json : formats::json::Value) const : std::vector&lt;T&gt;</text><text fill="#000000" font-family="sans-serif" font-size="14" lengthAdjust="spacing" textLength="3.64" x="1961" y="523.4601">&#160;</text><text fill="#000000" font-family="sans-serif" font-size="14" lengthAdjust="spacing" textLength="294.7129" x="1961" y="542.528">-sql_ongoing_get_all() const : std::vector&lt;int&gt;</text><text fill="#000000" font-family="sans-serif" font-size="14" lengthAdjust="spacing" textLength="243.4591" x="1961" y="561.5959">-sql_ongoing_new() const : std::string</text><text fill="#000000" font-family="sans-serif" font-size="14" lengthAdjust="spacing" textLength="370.8586" x="1961" y="580.6639">-sql_ongoing_delete(key : std::string_view) const : int64_t</text></g><!--class PlayerAction--><g class="entity" data-qualified-name="services..websocket.Actions.PlayerAction" data-source-line="15" id="ent0006"><rect fill="#F1F1F1" height="173.4754" rx="2.5" ry="2.5" style="stroke:#181818;stroke-width:0.5;" width="114.2077" x="3057" y="230.5"/><ellipse cx="3072" cy="246.5" fill="#EB937F" rx="11" ry="11" style="stroke:#181818;stroke-width:1;"/><path d="M3076.1094,252.5 L3068.3906,252.5 L3068.3906,240.1094 L3076.1094,240.1094 L3076.1094,242.2656 L3070.8438,242.2656 L3070.8438,244.9375 L3075.6094,244.9375 L3075.6094,247.0938 L3070.8438,247.0938 L3070.8438,250.3438 L3076.1094,250.3438 L3076.1094,252.5 Z " fill="#000000"/><text fill="#000000" font-family="sans-serif" font-size="14" lengthAdjust="spacing" textLength="82.2077" x="3086" y="251.932">PlayerAction</text><line style="stroke:#181818;stroke-width:0.5;" x1="3058" x2="3170.2077" y1="262.5" y2="262.5"/><text fill="#000000" font-family="sans-serif" font-size="14" lengthAdjust="spacing" textLength="30.4499" x="3063" y="281.4659">start</text><text fill="#000000" font-family="sans-serif" font-size="14" lengthAdjust="spacing" textLength="34.6919" x="3063" y="300.5339">place</text><text fill="#000000" font-family="sans-serif" font-size="14" lengthAdjust="spacing" textLength="48.3838" x="3063" y="319.6018">change</text><text fill="#000000" font-family="sans-serif" font-size="14" lengthAdjust="spacing" textLength="29.8759" x="3063" y="338.6697">pass</text><text fill="#000000" font-family="sans-serif" font-size="14" lengthAdjust="spacing" textLength="45.7238" x="3063" y="357.7376">submit</text><text fill="#000000" font-family="sans-serif" font-size="14" lengthAdjust="spacing" textLength="25.1579" x="3063" y="376.8055">end</text><text fill="#000000" font-family="sans-serif" font-size="14" lengthAdjust="spacing" textLength="32.5639" x="3063" y="395.8734">state</text></g><!--class ActionsUtils--><g class="entity" data-qualified-name="services..websocket.Actions.ActionsUtils" data-source-line="25" id="ent0007"><rect fill="#F1F1F1" height="72.4799" rx="2.5" ry="2.5" style="stroke:#181818;stroke-width:0.5;" width="285.293" x="2736.5" y="281"/><ellipse cx="2836.2076" cy="303.706" fill="#ADD1B2" rx="11" ry="11" style="stroke:#181818;stroke-width:1;"/><path d="M2839.1764,309.3466 Q2838.5983,309.6435 2837.9576,309.7841 Q2837.317,309.9404 2836.6139,309.9404 Q2834.1139,309.9404 2832.7858,308.2998 Q2831.4733,306.6435 2831.4733,303.5185 Q2831.4733,300.3935 2832.7858,298.7373 Q2834.1139,297.081 2836.6139,297.081 Q2837.317,297.081 2837.9576,297.2373 Q2838.6139,297.3935 2839.1764,297.6904 L2839.1764,300.4091 Q2838.5514,299.831 2837.9576,299.5654 Q2837.3639,299.2841 2836.7389,299.2841 Q2835.3951,299.2841 2834.7076,300.3623 Q2834.0201,301.4248 2834.0201,303.5185 Q2834.0201,305.6123 2834.7076,306.6904 Q2835.3951,307.7529 2836.7389,307.7529 Q2837.3639,307.7529 2837.9576,307.4873 Q2838.5514,307.206 2839.1764,306.6279 L2839.1764,309.3466 Z " fill="#000000"/><text fill="#000000" font-family="sans-serif" font-size="12" font-style="italic" lengthAdjust="spacing" textLength="41.2563" x="2874.7683" y="298.8281">&#171;utility&#187;</text><text fill="#000000" font-family="sans-serif" font-size="14" lengthAdjust="spacing" textLength="77.3777" x="2856.7076" y="317.31">ActionsUtils</text><line style="stroke:#181818;stroke-width:0.5;" x1="2737.5" x2="3020.793" y1="326.412" y2="326.412"/><text fill="#000000" font-family="sans-serif" font-size="14" lengthAdjust="spacing" text-decoration="underline" textLength="273.293" x="2742.5" y="345.378">from_string(str : std::string) : PlayerAction</text></g><!--class HttpUtils--><g class="entity" data-qualified-name="services..http.HttpUtils" data-source-line="60" id="ent0010"><rect fill="#F1F1F1" height="110.6158" rx="2.5" ry="2.5" style="stroke:#181818;stroke-width:0.5;" width="468.2163" x="23" y="261.5"/><ellipse cx="223.7033" cy="284.206" fill="#ADD1B2" rx="11" ry="11" style="stroke:#181818;stroke-width:1;"/><path d="M226.672,289.8466 Q226.0939,290.1435 225.4533,290.2841 Q224.8126,290.4404 224.1095,290.4404 Q221.6095,290.4404 220.2814,288.7998 Q218.9689,287.1435 218.9689,284.0185 Q218.9689,280.8935 220.2814,279.2373 Q221.6095,277.581 224.1095,277.581 Q224.8126,277.581 225.4533,277.7373 Q226.1095,277.8935 226.672,278.1904 L226.672,280.9091 Q226.047,280.331 225.4533,280.0654 Q224.8595,279.7841 224.2345,279.7841 Q222.8908,279.7841 222.2033,280.8623 Q221.5158,281.9248 221.5158,284.0185 Q221.5158,286.1123 222.2033,287.1904 Q222.8908,288.2529 224.2345,288.2529 Q224.8595,288.2529 225.4533,287.9873 Q226.047,287.706 226.672,287.1279 L226.672,289.8466 Z " fill="#000000"/><text fill="#000000" font-family="sans-serif" font-size="12" font-style="italic" lengthAdjust="spacing" textLength="41.2563" x="252.73" y="279.3281">&#171;utility&#187;</text><text fill="#000000" font-family="sans-serif" font-size="14" lengthAdjust="spacing" textLength="58.3098" x="244.2033" y="297.81">HttpUtils</text><line style="stroke:#181818;stroke-width:0.5;" x1="24" x2="490.2163" y1="306.912" y2="306.912"/><text fill="#000000" font-family="sans-serif" font-size="14" lengthAdjust="spacing" text-decoration="underline" textLength="456.2163" x="29" y="325.878">VerifyPassword(password : std::string, stored_hash : std::string) : bool</text><text fill="#000000" font-family="sans-serif" font-size="14" lengthAdjust="spacing" text-decoration="underline" textLength="323.9728" x="29" y="344.9459">HashPassword(password : std::string) : std::string</text><text fill="#000000" font-family="sans-serif" font-size="14" lengthAdjust="spacing" text-decoration="underline" textLength="274.077" x="29" y="364.0138">GenerateSessionTokens() : SessionTokens</text></g><!--class SessionTokens--><g class="entity" data-qualified-name="services..http.SessionTokens" data-source-line="66" id="ent0011"><rect fill="#F1F1F1" height="78.1358" rx="2.5" ry="2.5" style="stroke:#181818;stroke-width:0.5;" width="165.7334" x="526" y="278"/><ellipse cx="557.6598" cy="294" fill="#F1F1F1" rx="11" ry="11" style="stroke:#181818;stroke-width:1;"/><path d="M557.1442,294.5625 Q555.2848,293.8594 554.6286,293.0938 Q553.9879,292.3125 553.9879,291 Q553.9879,289.3125 555.0661,288.3438 Q556.1442,287.375 558.0192,287.375 Q558.8786,287.375 559.7223,287.5781 Q560.5817,287.7656 561.4254,288.1563 L561.4254,290.5469 Q560.6442,289.9844 559.8161,289.7031 Q559.0036,289.4063 558.2067,289.4063 Q557.3317,289.4063 556.8473,289.7656 Q556.3786,290.125 556.3786,290.7813 Q556.3786,291.2969 556.7223,291.6406 Q557.0661,291.9688 558.1598,292.375 L559.2223,292.7813 Q560.7067,293.3281 561.4098,294.2344 Q562.1286,295.1406 562.1286,296.5156 Q562.1286,298.3906 561.0192,299.3125 Q559.9098,300.2344 557.6598,300.2344 Q556.7379,300.2344 555.8161,300.0156 Q554.8942,299.7969 554.0348,299.375 L554.0348,296.8438 Q555.0036,297.5313 555.9254,297.875 Q556.8473,298.2188 557.7379,298.2188 Q558.6442,298.2188 559.1442,297.8125 Q559.6442,297.3906 559.6442,296.6563 Q559.6442,296.0938 559.3004,295.6875 Q558.9723,295.2656 558.3473,295.0156 L557.1442,294.5625 Z " fill="#000000"/><text fill="#000000" font-family="sans-serif" font-size="14" lengthAdjust="spacing" textLength="96.7116" x="575.362" y="299.432">SessionTokens</text><line style="stroke:#181818;stroke-width:0.5;" x1="527" x2="690.7334" y1="310" y2="310"/><text fill="#000000" font-family="sans-serif" font-size="14" lengthAdjust="spacing" textLength="153.7334" x="532" y="328.9659">+raw_token : std::string</text><text fill="#000000" font-family="sans-serif" font-size="14" lengthAdjust="spacing" textLength="97.6076" x="532" y="348.0339">+jti : std::string</text></g><!--class RegistrationStatus--><g class="entity" data-qualified-name="services..http.RegistrationStatus" data-source-line="71" id="ent0012"><rect fill="#F1F1F1" height="116.2717" rx="2.5" ry="2.5" style="stroke:#181818;stroke-width:0.5;" width="153.0156" x="727.5" y="259"/><ellipse cx="742.5" cy="275" fill="#EB937F" rx="11" ry="11" style="stroke:#181818;stroke-width:1;"/><path d="M746.6094,281 L738.8906,281 L738.8906,268.6094 L746.6094,268.6094 L746.6094,270.7656 L741.3438,270.7656 L741.3438,273.4375 L746.1094,273.4375 L746.1094,275.5938 L741.3438,275.5938 L741.3438,278.8438 L746.6094,278.8438 L746.6094,281 Z " fill="#000000"/><text fill="#000000" font-family="sans-serif" font-size="14" lengthAdjust="spacing" textLength="121.0156" x="756.5" y="280.432">RegistrationStatus</text><line style="stroke:#181818;stroke-width:0.5;" x1="728.5" x2="879.5156" y1="291" y2="291"/><text fill="#000000" font-family="sans-serif" font-size="14" lengthAdjust="spacing" textLength="19.5999" x="733.5" y="309.9659">OK</text><text fill="#000000" font-family="sans-serif" font-size="14" lengthAdjust="spacing" textLength="96.9216" x="733.5" y="329.0339">InternalFailure</text><text fill="#000000" font-family="sans-serif" font-size="14" lengthAdjust="spacing" textLength="67.8858" x="733.5" y="348.1018">UserExists</text><text fill="#000000" font-family="sans-serif" font-size="14" lengthAdjust="spacing" textLength="103.2076" x="733.5" y="367.1697">NicknameExists</text></g><!--class RegistrationHandler--><g class="entity" data-qualified-name="services..http.RegistrationHandler" data-source-line="78" id="ent0013"><rect fill="#F1F1F1" height="257.7471" rx="2.5" ry="2.5" style="stroke:#181818;stroke-width:0.5;" width="722.5676" x="915.5" y="188"/><ellipse cx="1206.139" cy="204" fill="#ADD1B2" rx="11" ry="11" style="stroke:#181818;stroke-width:1;"/><path d="M1209.1078,209.6406 Q1208.5297,209.9375 1207.889,210.0781 Q1207.2484,210.2344 1206.5453,210.2344 Q1204.0453,210.2344 1202.7172,208.5938 Q1201.4047,206.9375 1201.4047,203.8125 Q1201.4047,200.6875 1202.7172,199.0313 Q1204.0453,197.375 1206.5453,197.375 Q1207.2484,197.375 1207.889,197.5313 Q1208.5453,197.6875 1209.1078,197.9844 L1209.1078,200.7031 Q1208.4828,200.125 1207.889,199.8594 Q1207.2953,199.5781 1206.6703,199.5781 Q1205.3265,199.5781 1204.639,200.6563 Q1203.9515,201.7188 1203.9515,203.8125 Q1203.9515,205.9063 1204.639,206.9844 Q1205.3265,208.0469 1206.6703,208.0469 Q1207.2953,208.0469 1207.889,207.7813 Q1208.4828,207.5 1209.1078,206.9219 L1209.1078,209.6406 Z " fill="#000000"/><text fill="#000000" font-family="sans-serif" font-size="14" lengthAdjust="spacing" textLength="132.7895" x="1226.639" y="209.432">RegistrationHandler</text><line style="stroke:#181818;stroke-width:0.5;" x1="916.5" x2="1637.0676" y1="220" y2="220"/><text fill="#000000" font-family="sans-serif" font-size="14" lengthAdjust="spacing" text-decoration="underline" textLength="353.0647" x="921.5" y="238.9659">kName : std::string_view = "http-registration_handler"</text><text fill="#000000" font-family="sans-serif" font-size="14" lengthAdjust="spacing" textLength="3.64" x="921.5" y="258.0339">&#160;</text><text fill="#000000" font-family="sans-serif" font-size="14" lengthAdjust="spacing" textLength="3.64" x="921.5" y="277.1018">&#160;</text><text fill="#000000" font-family="sans-serif" font-size="14" lengthAdjust="spacing" textLength="3.64" x="921.5" y="296.1697">&#160;</text><text fill="#000000" font-family="sans-serif" font-size="14" lengthAdjust="spacing" textLength="263.563" x="921.5" y="315.2376">-sqlite_client_ : storages::sqlite::ClientPtr</text><line style="stroke:#181818;stroke-width:0.5;" x1="916.5" x2="1637.0676" y1="323.3396" y2="323.3396"/><text fill="#000000" font-family="sans-serif" font-size="14" lengthAdjust="spacing" textLength="698.3035" x="921.5" y="342.3055">+RegistrationHandler(config : components::ComponentConfig, context : components::ComponentContext)</text><text fill="#000000" font-family="sans-serif" font-size="14" lengthAdjust="spacing" textLength="710.5676" x="921.5" y="361.3734">+HandleRequest(request : server::http::HttpRequest, ctx : server::request::RequestContext) const : std::string</text><text fill="#000000" font-family="sans-serif" font-size="14" lengthAdjust="spacing" textLength="3.64" x="921.5" y="380.4414">&#160;</text><text fill="#000000" font-family="sans-serif" font-size="14" lengthAdjust="spacing" textLength="272.4809" x="921.5" y="399.5093">-nick_check_(nick : std::string) const : bool</text><text fill="#000000" font-family="sans-serif" font-size="14" lengthAdjust="spacing" textLength="291.6888" x="921.5" y="418.5772">-email_check_(email : std::string) const : bool</text><text fill="#000000" font-family="sans-serif" font-size="14" lengthAdjust="spacing" textLength="669.5336" x="921.5" y="437.6451">-register_new_user_(email : std::string, passwd : std::string, nick : std::string) const : RegistrationStatus</text></g><!--class LoginStatus--><g class="entity" data-qualified-name="services..http.LoginStatus" data-source-line="91" id="ent0014"><rect fill="#F1F1F1" height="116.2717" rx="2.5" ry="2.5" style="stroke:#181818;stroke-width:0.5;" width="121.1716" x="196.5" y="720"/><ellipse cx="216.6686" cy="736" fill="#EB937F" rx="11" ry="11" style="stroke:#181818;stroke-width:1;"/><path d="M220.778,742 L213.0593,742 L213.0593,729.6094 L220.778,729.6094 L220.778,731.7656 L215.5124,731.7656 L215.5124,734.4375 L220.278,734.4375 L220.278,736.5938 L215.5124,736.5938 L215.5124,739.8438 L220.778,739.8438 L220.778,742 Z " fill="#000000"/><text fill="#000000" font-family="sans-serif" font-size="14" lengthAdjust="spacing" textLength="77.6857" x="231.8172" y="741.432">LoginStatus</text><line style="stroke:#181818;stroke-width:0.5;" x1="197.5" x2="316.6716" y1="752" y2="752"/><text fill="#000000" font-family="sans-serif" font-size="14" lengthAdjust="spacing" textLength="19.5999" x="202.5" y="770.9659">OK</text><text fill="#000000" font-family="sans-serif" font-size="14" lengthAdjust="spacing" textLength="96.9216" x="202.5" y="790.0339">InternalFailure</text><text fill="#000000" font-family="sans-serif" font-size="14" lengthAdjust="spacing" textLength="92.0497" x="202.5" y="809.1018">UserNotExists</text><text fill="#000000" font-family="sans-serif" font-size="14" lengthAdjust="spacing" textLength="109.1716" x="202.5" y="828.1697">PasswdIncorrect</text></g><!--class UserDBInfo--><g class="entity" data-qualified-name="services..http.UserDBInfo" data-source-line="98" id="ent0015"><rect fill="#F1F1F1" height="78.1358" rx="2.5" ry="2.5" style="stroke:#181818;stroke-width:0.5;" width="184.8994" x="352.5" y="739"/><ellipse cx="402.3888" cy="755" fill="#F1F1F1" rx="11" ry="11" style="stroke:#181818;stroke-width:1;"/><path d="M401.8732,755.5625 Q400.0138,754.8594 399.3576,754.0938 Q398.7169,753.3125 398.7169,752 Q398.7169,750.3125 399.7951,749.3438 Q400.8732,748.375 402.7482,748.375 Q403.6076,748.375 404.4513,748.5781 Q405.3107,748.7656 406.1544,749.1563 L406.1544,751.5469 Q405.3732,750.9844 404.5451,750.7031 Q403.7326,750.4063 402.9357,750.4063 Q402.0607,750.4063 401.5763,750.7656 Q401.1076,751.125 401.1076,751.7813 Q401.1076,752.2969 401.4513,752.6406 Q401.7951,752.9688 402.8888,753.375 L403.9513,753.7813 Q405.4357,754.3281 406.1388,755.2344 Q406.8576,756.1406 406.8576,757.5156 Q406.8576,759.3906 405.7482,760.3125 Q404.6388,761.2344 402.3888,761.2344 Q401.4669,761.2344 400.5451,761.0156 Q399.6232,760.7969 398.7638,760.375 L398.7638,757.8438 Q399.7326,758.5313 400.6544,758.875 Q401.5763,759.2188 402.4669,759.2188 Q403.3732,759.2188 403.8732,758.8125 Q404.3732,758.3906 404.3732,757.6563 Q404.3732,757.0938 404.0294,756.6875 Q403.7013,756.2656 403.0763,756.0156 L401.8732,755.5625 Z " fill="#000000"/><text fill="#000000" font-family="sans-serif" font-size="14" lengthAdjust="spacing" textLength="76.6217" x="422.8888" y="760.432">UserDBInfo</text><line style="stroke:#181818;stroke-width:0.5;" x1="353.5" x2="536.3994" y1="771" y2="771"/><text fill="#000000" font-family="sans-serif" font-size="14" lengthAdjust="spacing" textLength="172.8994" x="358.5" y="789.9659">+passwd_hash : std::string</text><text fill="#000000" font-family="sans-serif" font-size="14" lengthAdjust="spacing" textLength="83.8317" x="358.5" y="809.0339">+user_id : int</text></g><!--class LoginHandler--><g class="entity" data-qualified-name="services..http.LoginHandler" data-source-line="103" id="ent0016"><rect fill="#F1F1F1" height="257.7471" rx="2.5" ry="2.5" style="stroke:#181818;stroke-width:0.5;" width="722.5676" x="572.5" y="649"/><ellipse cx="884.804" cy="665" fill="#ADD1B2" rx="11" ry="11" style="stroke:#181818;stroke-width:1;"/><path d="M887.7727,670.6406 Q887.1946,670.9375 886.554,671.0781 Q885.9133,671.2344 885.2102,671.2344 Q882.7102,671.2344 881.3821,669.5938 Q880.0696,667.9375 880.0696,664.8125 Q880.0696,661.6875 881.3821,660.0313 Q882.7102,658.375 885.2102,658.375 Q885.9133,658.375 886.554,658.5313 Q887.2102,658.6875 887.7727,658.9844 L887.7727,661.7031 Q887.1477,661.125 886.554,660.8594 Q885.9602,660.5781 885.3352,660.5781 Q883.9915,660.5781 883.304,661.6563 Q882.6165,662.7188 882.6165,664.8125 Q882.6165,666.9063 883.304,667.9844 Q883.9915,669.0469 885.3352,669.0469 Q885.9602,669.0469 886.554,668.7813 Q887.1477,668.5 887.7727,667.9219 L887.7727,670.6406 Z " fill="#000000"/><text fill="#000000" font-family="sans-serif" font-size="14" lengthAdjust="spacing" textLength="89.4597" x="905.304" y="670.432">LoginHandler</text><line style="stroke:#181818;stroke-width:0.5;" x1="573.5" x2="1294.0676" y1="681" y2="681"/><text fill="#000000" font-family="sans-serif" font-size="14" lengthAdjust="spacing" text-decoration="underline" textLength="308.9368" x="578.5" y="699.9659">kName : std::string_view = "http-login_handler"</text><text fill="#000000" font-family="sans-serif" font-size="14" lengthAdjust="spacing" textLength="3.64" x="578.5" y="719.0339">&#160;</text><text fill="#000000" font-family="sans-serif" font-size="14" lengthAdjust="spacing" textLength="3.64" x="578.5" y="738.1018">&#160;</text><text fill="#000000" font-family="sans-serif" font-size="14" lengthAdjust="spacing" textLength="3.64" x="578.5" y="757.1697">&#160;</text><text fill="#000000" font-family="sans-serif" font-size="14" lengthAdjust="spacing" textLength="263.563" x="578.5" y="776.2376">-sqlite_client_ : storages::sqlite::ClientPtr</text><line style="stroke:#181818;stroke-width:0.5;" x1="573.5" x2="1294.0676" y1="784.3396" y2="784.3396"/><text fill="#000000" font-family="sans-serif" font-size="14" lengthAdjust="spacing" textLength="654.9735" x="578.5" y="803.3055">+LoginHandler(config : components::ComponentConfig, context : components::ComponentContext)</text><text fill="#000000" font-family="sans-serif" font-size="14" lengthAdjust="spacing" textLength="710.5676" x="578.5" y="822.3734">+HandleRequest(request : server::http::HttpRequest, ctx : server::request::RequestContext) const : std::string</text><text fill="#000000" font-family="sans-serif" font-size="14" lengthAdjust="spacing" textLength="3.64" x="578.5" y="841.4414">&#160;</text><text fill="#000000" font-family="sans-serif" font-size="14" lengthAdjust="spacing" textLength="575.342" x="578.5" y="860.5093">-login_checker_(login : std::string, passwd : std::string, user_id : int&amp;) const : LoginStatus</text><text fill="#000000" font-family="sans-serif" font-size="14" lengthAdjust="spacing" textLength="324.4068" x="578.5" y="879.5772">-define_login_type_(login : std::string) const : bool</text><text fill="#000000" font-family="sans-serif" font-size="14" lengthAdjust="spacing" textLength="518.642" x="578.5" y="898.6451">-get_token_for_client_(user_id : int, raw_token : std::string&amp;) const : LoginStatus</text></g><!--class GameAction--><g class="entity" data-qualified-name="services..http.GameAction" data-source-line="116" id="ent0017"><rect fill="#F1F1F1" height="135.3396" rx="2.5" ry="2.5" style="stroke:#181818;stroke-width:0.5;" width="112.4857" x="1331" y="710.5"/><ellipse cx="1346" cy="726.5" fill="#EB937F" rx="11" ry="11" style="stroke:#181818;stroke-width:1;"/><path d="M1350.1094,732.5 L1342.3906,732.5 L1342.3906,720.1094 L1350.1094,720.1094 L1350.1094,722.2656 L1344.8438,722.2656 L1344.8438,724.9375 L1349.6094,724.9375 L1349.6094,727.0938 L1344.8438,727.0938 L1344.8438,730.3438 L1350.1094,730.3438 L1350.1094,732.5 Z " fill="#000000"/><text fill="#000000" font-family="sans-serif" font-size="14" lengthAdjust="spacing" textLength="80.4857" x="1360" y="731.932">GameAction</text><line style="stroke:#181818;stroke-width:0.5;" x1="1332" x2="1442.4857" y1="742.5" y2="742.5"/><text fill="#000000" font-family="sans-serif" font-size="14" lengthAdjust="spacing" textLength="24.3459" x="1337" y="761.4659">join</text><text fill="#000000" font-family="sans-serif" font-size="14" lengthAdjust="spacing" textLength="41.2018" x="1337" y="780.5339">create</text><text fill="#000000" font-family="sans-serif" font-size="14" lengthAdjust="spacing" textLength="25.1579" x="1337" y="799.6018">end</text><text fill="#000000" font-family="sans-serif" font-size="14" lengthAdjust="spacing" textLength="30.4499" x="1337" y="818.6697">start</text><text fill="#000000" font-family="sans-serif" font-size="14" lengthAdjust="spacing" textLength="18.9839" x="1337" y="837.7376">list</text></g><!--class JoinGameResult--><g class="entity" data-qualified-name="services..http.JoinGameResult" data-source-line="124" id="ent0018"><rect fill="#F1F1F1" height="97.2038" rx="2.5" ry="2.5" style="stroke:#181818;stroke-width:0.5;" width="136.2156" x="189" y="1123.5"/><ellipse cx="204" cy="1139.5" fill="#EB937F" rx="11" ry="11" style="stroke:#181818;stroke-width:1;"/><path d="M208.1094,1145.5 L200.3906,1145.5 L200.3906,1133.1094 L208.1094,1133.1094 L208.1094,1135.2656 L202.8438,1135.2656 L202.8438,1137.9375 L207.6094,1137.9375 L207.6094,1140.0938 L202.8438,1140.0938 L202.8438,1143.3438 L208.1094,1143.3438 L208.1094,1145.5 Z " fill="#000000"/><text fill="#000000" font-family="sans-serif" font-size="14" lengthAdjust="spacing" textLength="104.2156" x="218" y="1144.932">JoinGameResult</text><line style="stroke:#181818;stroke-width:0.5;" x1="190" x2="324.2156" y1="1155.5" y2="1155.5"/><text fill="#000000" font-family="sans-serif" font-size="14" lengthAdjust="spacing" textLength="54.2078" x="195" y="1174.4659">inserted</text><text fill="#000000" font-family="sans-serif" font-size="14" lengthAdjust="spacing" textLength="40.8518" x="195" y="1193.5339">joined</text><text fill="#000000" font-family="sans-serif" font-size="14" lengthAdjust="spacing" textLength="33.7119" x="195" y="1212.6018">error</text></g><!--class GameInfo--><g class="entity" data-qualified-name="services..http.GameInfo" data-source-line="130" id="ent0019"><rect fill="#F1F1F1" height="97.2038" rx="2.5" ry="2.5" style="stroke:#181818;stroke-width:0.5;" width="205.1713" x="360.5" y="1123.5"/><ellipse cx="425.9778" cy="1139.5" fill="#F1F1F1" rx="11" ry="11" style="stroke:#181818;stroke-width:1;"/><path d="M425.4621,1140.0625 Q423.6028,1139.3594 422.9465,1138.5938 Q422.3059,1137.8125 422.3059,1136.5 Q422.3059,1134.8125 423.384,1133.8438 Q424.4621,1132.875 426.3371,1132.875 Q427.1965,1132.875 428.0403,1133.0781 Q428.8996,1133.2656 429.7434,1133.6563 L429.7434,1136.0469 Q428.9621,1135.4844 428.134,1135.2031 Q427.3215,1134.9063 426.5246,1134.9063 Q425.6496,1134.9063 425.1653,1135.2656 Q424.6965,1135.625 424.6965,1136.2813 Q424.6965,1136.7969 425.0403,1137.1406 Q425.384,1137.4688 426.4778,1137.875 L427.5403,1138.2813 Q429.0246,1138.8281 429.7278,1139.7344 Q430.4465,1140.6406 430.4465,1142.0156 Q430.4465,1143.8906 429.3371,1144.8125 Q428.2278,1145.7344 425.9778,1145.7344 Q425.0559,1145.7344 424.134,1145.5156 Q423.2121,1145.2969 422.3528,1144.875 L422.3528,1142.3438 Q423.3215,1143.0313 424.2434,1143.375 Q425.1653,1143.7188 426.0559,1143.7188 Q426.9621,1143.7188 427.4621,1143.3125 Q427.9621,1142.8906 427.9621,1142.1563 Q427.9621,1141.5938 427.6184,1141.1875 Q427.2903,1140.7656 426.6653,1140.5156 L425.4621,1140.0625 Z " fill="#000000"/><text fill="#000000" font-family="sans-serif" font-size="14" lengthAdjust="spacing" textLength="65.7157" x="446.4778" y="1144.932">GameInfo</text><line style="stroke:#181818;stroke-width:0.5;" x1="361.5" x2="564.6713" y1="1155.5" y2="1155.5"/><text fill="#000000" font-family="sans-serif" font-size="14" lengthAdjust="spacing" textLength="92.2456" x="366.5" y="1174.4659">+game_id : int</text><text fill="#000000" font-family="sans-serif" font-size="14" lengthAdjust="spacing" textLength="193.1713" x="366.5" y="1193.5339">+host_user_name : std::string</text><text fill="#000000" font-family="sans-serif" font-size="14" lengthAdjust="spacing" textLength="128.2115" x="366.5" y="1212.6018">+num_of_users : int</text></g><!--class GameHandler--><g class="entity" data-qualified-name="services..http.GameHandler" data-source-line="136" id="ent0020"><rect fill="#F1F1F1" height="410.2904" rx="2.5" ry="2.5" style="stroke:#181818;stroke-width:0.5;" width="722.5676" x="600.5" y="967"/><ellipse cx="911.628" cy="983" fill="#ADD1B2" rx="11" ry="11" style="stroke:#181818;stroke-width:1;"/><path d="M914.5967,988.6406 Q914.0186,988.9375 913.378,989.0781 Q912.7373,989.2344 912.0342,989.2344 Q909.5342,989.2344 908.2061,987.5938 Q906.8936,985.9375 906.8936,982.8125 Q906.8936,979.6875 908.2061,978.0313 Q909.5342,976.375 912.0342,976.375 Q912.7373,976.375 913.378,976.5313 Q914.0342,976.6875 914.5967,976.9844 L914.5967,979.7031 Q913.9717,979.125 913.378,978.8594 Q912.7842,978.5781 912.1592,978.5781 Q910.8155,978.5781 910.128,979.6563 Q909.4405,980.7188 909.4405,982.8125 Q909.4405,984.9063 910.128,985.9844 Q910.8155,987.0469 912.1592,987.0469 Q912.7842,987.0469 913.378,986.7813 Q913.9717,986.5 914.5967,985.9219 L914.5967,988.6406 Z " fill="#000000"/><text fill="#000000" font-family="sans-serif" font-size="14" lengthAdjust="spacing" textLength="91.8116" x="932.128" y="988.432">GameHandler</text><line style="stroke:#181818;stroke-width:0.5;" x1="601.5" x2="1322.0676" y1="999" y2="999"/><text fill="#000000" font-family="sans-serif" font-size="14" lengthAdjust="spacing" text-decoration="underline" textLength="313.4308" x="606.5" y="1017.9659">kName : std::string_view = "http-game_handler"</text><text fill="#000000" font-family="sans-serif" font-size="14" lengthAdjust="spacing" textLength="3.64" x="606.5" y="1037.0339">&#160;</text><text fill="#000000" font-family="sans-serif" font-size="14" lengthAdjust="spacing" textLength="3.64" x="606.5" y="1056.1018">&#160;</text><text fill="#000000" font-family="sans-serif" font-size="14" lengthAdjust="spacing" textLength="3.64" x="606.5" y="1075.1697">&#160;</text><text fill="#000000" font-family="sans-serif" font-size="14" lengthAdjust="spacing" textLength="263.563" x="606.5" y="1094.2376">-sqlite_client_ : storages::sqlite::ClientPtr</text><text fill="#000000" font-family="sans-serif" font-size="14" lengthAdjust="spacing" textLength="472.4422" x="606.5" y="1113.3055">-game_storage_client_ : std::shared_ptr&lt;ScrabbleGame::Storage::Client&gt;</text><line style="stroke:#181818;stroke-width:0.5;" x1="601.5" x2="1322.0676" y1="1121.4075" y2="1121.4075"/><text fill="#000000" font-family="sans-serif" font-size="14" lengthAdjust="spacing" textLength="657.3254" x="606.5" y="1140.3734">+GameHandler(config : components::ComponentConfig, context : components::ComponentContext)</text><text fill="#000000" font-family="sans-serif" font-size="14" lengthAdjust="spacing" textLength="710.5676" x="606.5" y="1159.4414">+HandleRequest(request : server::http::HttpRequest, ctx : server::request::RequestContext) const : std::string</text><text fill="#000000" font-family="sans-serif" font-size="14" lengthAdjust="spacing" textLength="3.64" x="606.5" y="1178.5093">&#160;</text><text fill="#000000" font-family="sans-serif" font-size="14" lengthAdjust="spacing" textLength="402.0225" x="606.5" y="1197.5772">-from_string_GameAction(str : std::string) const : GameAction</text><text fill="#000000" font-family="sans-serif" font-size="14" lengthAdjust="spacing" textLength="531.564" x="606.5" y="1216.6451">-create_game_(request : server::http::HttpRequest, user_id : int) const : std::string</text><text fill="#000000" font-family="sans-serif" font-size="14" lengthAdjust="spacing" textLength="449.4823" x="606.5" y="1235.713">-from_string_JoinGameResult(str : std::string) const : JoinGameResult</text><text fill="#000000" font-family="sans-serif" font-size="14" lengthAdjust="spacing" textLength="514.7081" x="606.5" y="1254.7809">-join_game_(request : server::http::HttpRequest, user_id : int) const : std::string</text><text fill="#000000" font-family="sans-serif" font-size="14" lengthAdjust="spacing" textLength="420.1524" x="606.5" y="1273.8489">-check_if_already_joined_(game_id : int, user_id : int) const : bool</text><text fill="#000000" font-family="sans-serif" font-size="14" lengthAdjust="spacing" textLength="520.8121" x="606.5" y="1292.9168">-start_game_(request : server::http::HttpRequest, user_id : int) const : std::string</text><text fill="#000000" font-family="sans-serif" font-size="14" lengthAdjust="spacing" textLength="515.5201" x="606.5" y="1311.9847">-end_game_(request : server::http::HttpRequest, user_id : int) const : std::string</text><text fill="#000000" font-family="sans-serif" font-size="14" lengthAdjust="spacing" textLength="432.8364" x="606.5" y="1331.0526">-list_games_(request : server::http::HttpRequest) const : std::string</text><text fill="#000000" font-family="sans-serif" font-size="14" lengthAdjust="spacing" textLength="338.0567" x="606.5" y="1350.1205">-list_games_helper_() const : std::vector&lt;GameInfo&gt;</text><text fill="#000000" font-family="sans-serif" font-size="14" lengthAdjust="spacing" textLength="378.8946" x="606.5" y="1369.1884">-define_user_id_from_token_(token : std::string) const : int</text></g><!--class GameStorageClient--><g class="entity" data-qualified-name="external.game.GameStorageClient" data-source-line="159" id="ent0022"><rect fill="#F1F1F1" height="32" rx="2.5" ry="2.5" style="stroke:#181818;stroke-width:0.5;" width="231.8352" x="3251" y="301"/><ellipse cx="3266" cy="317" fill="#ADD1B2" rx="11" ry="11" style="stroke:#181818;stroke-width:1;"/><path d="M3268.9688,322.6406 Q3268.3906,322.9375 3267.75,323.0781 Q3267.1094,323.2344 3266.4063,323.2344 Q3263.9063,323.2344 3262.5781,321.5938 Q3261.2656,319.9375 3261.2656,316.8125 Q3261.2656,313.6875 3262.5781,312.0313 Q3263.9063,310.375 3266.4063,310.375 Q3267.1094,310.375 3267.75,310.5313 Q3268.4063,310.6875 3268.9688,310.9844 L3268.9688,313.7031 Q3268.3438,313.125 3267.75,312.8594 Q3267.1563,312.5781 3266.5313,312.5781 Q3265.1875,312.5781 3264.5,313.6563 Q3263.8125,314.7188 3263.8125,316.8125 Q3263.8125,318.9063 3264.5,319.9844 Q3265.1875,321.0469 3266.5313,321.0469 Q3267.1563,321.0469 3267.75,320.7813 Q3268.3438,320.5 3268.9688,319.9219 L3268.9688,322.6406 Z " fill="#000000"/><text fill="#000000" font-family="sans-serif" font-size="14" lengthAdjust="spacing" textLength="199.8352" x="3280" y="322.432">ScrabbleGame::Storage::Client</text></g><?plantuml-src tLZTRzis47_tNq7ueL3M1Dl3i0SXCz0sM-DzP46Sfey2BPrjnXJfabGShyZ_lYEFiYLRJjqK2OO-IIBlVdUyBzx9peLQSCDBbajkxHldZ1XN3eQvLYFnBx2VUdPDik3vd4zXv5OIc87SSJMLq9k90XYK2xTY9RYPBcnpQI90uaelChE-1NCdSh1fEWK5Xii--znZ99-zfwLtMat4b9sULav8uLQ3GQ1XxBDrt8dyWMaZfa9PbZBhYZIrgBUQPdS2bknNrl-XZzGFlOTEiKiOMvtFmNd1IBScUPCxePNjHrcWgf9TIhu2GpjndQ58RbnyNqYUGtpFPsYH-cE1vwdfgt4fQWPGnGR64VL3Bpp81b6D3tXqss62XX4cHfSP7Jt1HziOH_ZPr3uAYi98rCVQ5FQSgqA2sJRp_8ANiCV8QpkUp8YvJwTulOEQvEJFbEMwN6W5og4VtjNlvErZt5GExjqZP7xxY8GGT88czmpUks0QlarJr68KNf5FGJ01Yd3t3Me3dogmI7j5BxK4hudri7TQ57Ieatm6-JmJawn2xknM2mL5bapHF9aea5GeTyp2NlsvWHbhBIDAPGmU9GjymV_PH1l2J4gmrWTYvt7-fiqj6SUifS6Mva7a9JSM8lT18hf0UB1V5eBzG3rlBJAKrdiTZrXoxqk_bgOtN5QmrrWxGaEslRHGIkMNbegruQL5-ZBruXuDzV35f9x1X5VI3HNA36W-vGmKmkx1V5i9MO2Xv1gU4V8lFsUTw0LCi1PaKOiir6Idvw2o93osgtADW904SArli3nfStez2EhjKMh36U3kQfvOd-mdcMarrRv2Jy5bNCgacmK53tPv52otwKdZNT8293X8vh3gk1bQ1_Gss-WdiDhbKlZw5nYrGGVZ8MaBAttOktI6E6AD35GjFYzmnj61sSAPqr5k-7WiuJsIf-c8w6kmmIDzmCovHMm1w3OynuLzj-xwHhm18oQhIwHVQbCaY_ZIjiHnE1qgEEDsjdijh--3DUevqdq1ywZ3BMj-wfiSZ31hCCEkVU3PnBEqLkhR7o6gtBNtua5V6xxCEWANDc-Ts5aEYA5PkeAfm6Nkato4cbKrw3z_XiSGhrUZkFoT2raPQdq-e4D-kqSsQfOkH3vNwCdrKgDRQS8_eL_n_Zun3Onigs_fm7--pYMs74diGHf5qEkPfZuO8yrNjorD_r0kAJHhHYrCuj_t5QLDfm8bEgbc2HzVvY7ZOXt4OX9xcWxEuz0QBtTIvZ6zTYFhQMLb4wj_QPmVlYP8BxHhn6b8rcAeScty9BILM9x-xErGJNITLNJaZdf0swqxh1trGT6dXhlqpDjntaJyNWAS3Xh2rOTT-3mix5gcVxMHqGYGraLFajng0PrYklB2tyVK4lZE8yPgijN8xwcxUpJwnkZtbsLhgFK33SsW1kgfj9vKD-EknFXluVo1R1xh2YnsM14Bvt8m3eerS7m5OxJPoXJFtCoJrZX3IpDj7LKJjHFjH86QP9ecCzkLGbx8KpCeABILG0syxoL_6hyIiarmTFrLg34sL76q3O53a-rXIkzft7TwpwPkxO1xJBys9I7vO7mE3TS_1xX4AnIh9_yV2Ads71fYBZy7h2y80TSU17mOqWpamXVnxl6bhXY3Rn-__b-J2MPeQ3n-zF3DdwBzHu7wZ5E5Y-kqYiZ_0G00?></g></svg>